<svg width="25" height="30" viewBox="0 0 25 30" fill="none" xmlns="http://www.w3.org/2000/svg">
<path d="M20.3859 15.9534C20.4159 13.616 21.6409 11.4573 23.6321 10.2336C22.3709 8.43109 20.3322 7.32986 18.1335 7.26111C15.8198 7.01862 13.5773 8.64484 12.3986 8.64484C11.1974 8.64484 9.38239 7.28486 7.42743 7.32486C4.85623 7.40861 2.51627 8.83483 1.26505 11.0835C-1.39865 15.696 0.587559 22.4758 3.14001 26.2045C4.41749 28.0307 5.90871 30.0694 7.86242 29.9982C9.77363 29.9194 10.4874 28.7795 12.7936 28.7795C15.0785 28.7795 15.7485 29.9982 17.741 29.9519C19.7909 29.9182 21.0834 28.1182 22.3159 26.2745C23.2334 24.9733 23.9396 23.5358 24.4071 22.0146C21.9722 20.9846 20.3884 18.5984 20.3859 15.9534Z" fill="black"/>
<path d="M16.6223 4.80866C17.7398 3.46618 18.291 1.74122 18.1572 0C16.4498 0.179997 14.8711 0.996231 13.7386 2.28621C12.6198 3.55993 12.0524 5.2249 12.1624 6.91737C13.8936 6.93487 15.5373 6.15738 16.6223 4.80866Z" fill="black"/>
</svg>
