<svg width="277" height="61" viewBox="0 0 277 61" fill="none" xmlns="http://www.w3.org/2000/svg">
<path d="M11.4016 57.96C9.41763 57.96 7.52963 57.416 5.73763 56.328C3.94563 55.176 2.60163 53.448 1.70563 51.144C1.38563 50.312 1.16163 49.448 1.03363 48.552C0.905625 47.592 0.841625 46.664 0.841625 45.768C0.841625 44.872 1.00163 44.424 1.32163 44.424C1.70563 44.424 1.89763 44.68 1.89763 45.192C1.89763 48.2 2.63363 50.472 4.10563 52.008C5.64163 53.544 7.52963 54.312 9.76963 54.312C12.0096 54.312 14.1536 53.672 16.2016 52.392C18.3136 51.112 20.2656 49.48 22.0576 47.496C25.0016 44.296 27.4976 41.064 29.5456 37.8C31.5936 34.472 33.4496 31.08 35.1136 27.624C36.8416 24.104 38.5696 20.456 40.2976 16.68C41.3856 14.376 42.7296 12.36 44.3296 10.632C45.9936 8.904 47.9776 7.72 50.2816 7.08L50.3776 6.984H45.0976C42.8576 6.984 40.4896 7.08 37.9936 7.272C35.4976 7.464 33.2256 7.88 31.1776 8.52C29.1936 9.16 27.7536 10.12 26.8576 11.4C26.2816 12.232 25.9936 13.192 25.9936 14.28C25.9936 15.368 26.2816 16.424 26.8576 17.448C27.4336 18.472 28.1696 19.208 29.0656 19.656C29.1936 19.784 29.2576 19.88 29.2576 19.944C29.2576 20.072 29.0976 20.232 28.7776 20.424C28.5216 20.552 28.2336 20.584 27.9136 20.52C27.4016 20.2 26.7616 19.688 25.9936 18.984C25.2256 18.216 24.5216 17.416 23.8816 16.584C23.3056 15.752 22.9216 15.048 22.7296 14.472C22.4736 13.704 22.3456 12.936 22.3456 12.168C22.3456 10.632 22.8896 9.384 23.9776 8.424C25.1296 7.464 26.6016 6.728 28.3936 6.216C30.1856 5.704 32.1056 5.352 34.1536 5.16C36.2656 4.904 38.2816 4.776 40.2016 4.776C42.1856 4.712 43.8816 4.68 45.2896 4.68H55.6576C55.7856 4.68 55.8496 4.712 55.8496 4.776C55.8496 4.968 55.6256 5.256 55.1776 5.64C54.7936 5.96 54.5376 6.12 54.4096 6.12C52.8096 6.44 51.6256 7.304 50.8576 8.712C50.0896 10.056 49.7376 12.232 49.8016 15.24C49.8016 15.24 49.8016 15.944 49.8016 17.352C49.8656 18.76 49.9296 20.584 49.9936 22.824C50.0576 25.064 50.1216 27.464 50.1856 30.024C50.2496 32.584 50.3136 35.048 50.3776 37.416C50.4416 39.784 50.5056 41.768 50.5696 43.368V43.944L83.8816 8.808C85.9936 6.568 88.0736 4.68 90.1216 3.144C92.2336 1.544 94.4096 0.839998 96.6496 1.032C96.7136 1.032 96.7456 1.064 96.7456 1.128C96.8096 1.128 96.8416 1.128 96.8416 1.128C96.8416 1.32 96.7136 1.54399 96.4576 1.8C96.2016 2.056 95.9136 2.216 95.5936 2.27999C93.9296 2.216 92.4256 2.856 91.0816 4.2C89.7376 5.544 88.4896 7.144 87.3376 9C86.7616 9.96 85.8976 11.496 84.7456 13.608C83.5936 15.656 82.2816 18.088 80.8096 20.904C79.4016 23.72 77.9616 26.696 76.4896 29.832C75.0176 32.968 73.6416 36.04 72.3616 39.048C71.1456 42.056 70.1536 44.808 69.3856 47.304C68.6176 49.736 68.2336 51.72 68.2336 53.256C68.2336 55.048 68.8416 55.944 70.0576 55.944C70.5696 55.944 71.1136 55.816 71.6896 55.56C72.5216 55.24 73.4496 54.76 74.4736 54.12C75.4976 53.48 76.4256 52.744 77.2576 51.912C78.9216 50.312 80.3936 48.68 81.6736 47.016C82.9536 45.288 83.7216 44.296 83.9776 44.04C84.1696 43.784 84.3296 43.656 84.4576 43.656C84.7136 43.656 84.8416 43.848 84.8416 44.232C84.8416 44.616 84.7136 44.968 84.4576 45.288C83.9456 45.928 83.0816 47.048 81.8656 48.648C80.6496 50.184 79.2096 51.752 77.5456 53.352C75.9456 54.952 74.2176 56.168 72.3616 57C71.7856 57.256 71.1776 57.448 70.5376 57.576C69.8976 57.768 69.2576 57.864 68.6176 57.864C67.2096 57.864 65.9296 57.448 64.7776 56.616C63.6896 55.72 63.1456 54.248 63.1456 52.2C63.1456 50.216 63.5936 47.976 64.4896 45.48C65.4496 42.92 66.5056 40.456 67.6576 38.088C68.8736 35.656 69.8656 33.608 70.6336 31.944C71.4656 30.216 72.5216 28.008 73.8016 25.32C75.0816 22.632 76.5536 19.912 78.2176 17.16L50.5696 46.344C50.5056 46.856 50.2816 47.368 49.8976 47.88C49.5136 48.328 48.9056 48.712 48.0736 49.032C47.6256 49.224 47.0176 49.736 46.2496 50.568C45.4816 51.4 44.9696 51.976 44.7136 52.296C44.7136 52.36 44.6176 52.392 44.4256 52.392C44.2336 52.392 44.0416 52.328 43.8496 52.2C43.6576 52.072 43.5936 51.976 43.6576 51.912C45.3216 49.8 46.1856 46.888 46.2496 43.176L46.3456 40.872C46.4736 38.184 46.5696 35.368 46.6336 32.424C46.6976 29.416 46.7296 26.632 46.7296 24.072C46.7936 21.448 46.8256 19.336 46.8256 17.736C46.8256 16.072 46.8256 15.24 46.8256 15.24C46.8256 13.704 47.0496 12.36 47.4976 11.208C47.9456 10.056 48.4896 9.064 49.1296 8.232C48.0416 9.064 46.9856 10.056 45.9616 11.208C44.9376 12.36 44.0736 13.64 43.3696 15.048C42.4096 17.032 41.3216 19.592 40.1056 22.728C38.8896 25.864 37.4816 29.192 35.8816 32.712C34.3456 36.232 32.6176 39.688 30.6976 43.08C28.8416 46.408 26.7616 49.288 24.4576 51.72C22.8576 53.448 20.8096 54.92 18.3136 56.136C15.8816 57.352 13.5776 57.96 11.4016 57.96ZM102.225 58.152C99.6651 58.152 97.1051 57.928 94.5451 57.48C91.9851 57.096 89.6491 56.36 87.5371 55.272C85.4891 54.184 83.8251 52.648 82.5451 50.664C81.2651 48.68 80.6251 46.12 80.6251 42.984C80.6251 40.36 81.1371 37.352 82.1611 33.96C83.2491 30.504 84.8491 27.048 86.9611 23.592C89.0731 20.072 91.6971 16.808 94.8331 13.8C98.0331 10.792 101.713 8.392 105.873 6.6C110.097 4.744 114.833 3.816 120.081 3.816C127.761 3.816 133.361 5.064 136.881 7.56C140.401 9.992 142.161 13.8 142.161 18.984C142.161 24.04 141.105 28.904 138.993 33.576C136.945 38.248 134.065 42.44 130.353 46.152C126.705 49.864 122.481 52.808 117.681 54.984C112.881 57.096 107.729 58.152 102.225 58.152ZM101.457 56.712C105.361 56.712 109.073 55.976 112.593 54.504C116.177 52.968 119.409 50.92 122.289 48.36C125.233 45.736 127.761 42.76 129.873 39.432C132.049 36.104 133.713 32.616 134.865 28.968C136.081 25.32 136.689 21.704 136.689 18.12C136.689 14.152 135.441 11.016 132.945 8.712C130.449 6.408 126.225 5.256 120.273 5.256C116.881 5.256 113.489 6.12 110.097 7.848C106.769 9.512 103.633 11.752 100.689 14.568C97.8091 17.384 95.2171 20.488 92.9131 23.88C90.6731 27.272 88.9131 30.696 87.6331 34.152C86.3531 37.608 85.7131 40.84 85.7131 43.848C85.7131 47.88 86.8971 51.048 89.2651 53.352C91.6971 55.592 95.7611 56.712 101.457 56.712ZM151.161 60.744C149.177 60.744 147.289 60.168 145.497 59.016C143.705 57.928 142.361 56.232 141.465 53.928C141.145 53.096 140.921 52.2 140.793 51.24C140.665 50.28 140.601 49.384 140.601 48.552V47.688C140.601 47.176 140.633 46.664 140.697 46.152C140.825 45.64 141.113 45.384 141.561 45.384C141.689 45.384 141.753 45.448 141.753 45.576C141.753 45.96 141.721 46.376 141.657 46.824C141.657 47.208 141.657 47.592 141.657 47.976C141.657 50.984 142.393 53.256 143.865 54.792C145.401 56.328 147.289 57.096 149.529 57.096C151.769 57.096 153.945 56.456 156.057 55.176C158.169 53.896 160.121 52.264 161.913 50.28C163.705 48.296 165.401 45.832 167.001 42.888C168.601 39.944 170.105 36.84 171.513 33.576C172.921 30.248 174.233 26.984 175.449 23.784C176.729 20.584 177.913 17.736 179.001 15.24C179.641 13.768 180.825 12.52 182.553 11.496C184.345 10.472 186.041 9.736 187.641 9.288C187.193 9.224 186.745 9.192 186.297 9.192C185.913 9.128 185.529 9.064 185.145 9L171.609 7.656C170.585 7.528 169.241 7.432 167.577 7.368C165.913 7.304 164.153 7.272 162.297 7.272C159.801 7.272 157.241 7.432 154.617 7.752C151.993 8.008 149.625 8.488 147.513 9.192C145.401 9.896 143.865 10.952 142.905 12.36C142.393 13.128 142.137 14.024 142.137 15.048C142.137 16.072 142.425 17.032 143.001 17.928C143.577 18.824 144.313 19.528 145.209 20.04C145.337 20.168 145.401 20.264 145.401 20.328C145.401 20.52 145.241 20.68 144.921 20.808C144.665 20.936 144.377 20.936 144.057 20.808C143.481 20.488 142.809 19.944 142.041 19.176C141.273 18.408 140.569 17.608 139.929 16.776C139.353 15.88 138.937 15.144 138.681 14.568C138.297 13.48 138.105 12.52 138.105 11.688C138.105 10.152 138.617 8.904 139.641 7.944C140.729 6.92 142.105 6.152 143.769 5.64C145.497 5.064 147.321 4.68 149.241 4.488C151.225 4.232 153.113 4.104 154.905 4.104C155.609 4.104 156.281 4.104 156.921 4.104C157.561 4.104 158.169 4.136 158.745 4.2C160.793 4.328 162.937 4.456 165.177 4.584C167.417 4.712 169.689 4.872 171.993 5.064L187.257 6.312C188.281 6.376 189.817 6.504 191.865 6.696C193.977 6.824 196.121 6.888 198.297 6.888C200.665 6.888 202.841 6.76 204.825 6.504C206.809 6.184 208.121 5.64 208.761 4.872C208.889 4.616 209.081 4.552 209.337 4.68C209.593 4.808 209.657 4.968 209.529 5.16C209.337 5.928 209.081 6.504 208.761 6.888C208.441 7.528 207.993 8.232 207.417 9C206.905 9.768 206.105 10.28 205.017 10.536C204.761 10.6 204.409 10.664 203.961 10.728C203.513 10.728 203.033 10.728 202.521 10.728C201.049 10.728 199.257 10.632 197.145 10.44C195.097 10.184 193.081 9.928 191.097 9.672C189.177 9.992 187.513 10.888 186.105 12.36C184.697 13.832 183.481 15.528 182.457 17.448C181.433 19.304 180.537 21.064 179.769 22.728C178.361 25.608 177.177 28.264 176.217 30.696C175.321 33.064 174.201 35.688 172.857 38.568C171.513 41.512 170.105 44.424 168.633 47.304C167.161 50.12 165.369 52.68 163.257 54.984C161.657 56.712 159.801 58.088 157.689 59.112C155.577 60.2 153.401 60.744 151.161 60.744ZM200.855 58.152C198.807 58.152 196.727 58.088 194.615 57.96C192.503 57.896 190.423 57.736 188.375 57.48C183.831 57.096 181.559 55.624 181.559 53.064C181.559 51.784 182.071 50.248 183.095 48.456C185.527 44.04 188.023 39.656 190.583 35.304C193.143 30.888 195.671 26.472 198.167 22.056C198.935 20.648 199.927 18.888 201.143 16.776C202.359 14.664 203.575 12.648 204.791 10.728C205.367 9.832 206.199 8.936 207.287 8.04C208.375 7.08 209.495 6.472 210.647 6.216C209.303 6.28 207.575 6.376 205.463 6.504C203.415 6.632 201.303 6.888 199.127 7.272C197.015 7.592 195.095 8.136 193.367 8.904C191.703 9.608 190.519 10.6 189.815 11.88C189.559 12.456 189.335 13.032 189.143 13.608C188.951 14.184 188.855 14.76 188.855 15.336C188.855 16.808 189.367 17.864 190.391 18.504C190.455 18.504 190.487 18.568 190.487 18.696C190.487 18.824 190.359 18.952 190.103 19.08C189.911 19.208 189.719 19.24 189.527 19.176C188.951 18.856 188.247 18.088 187.415 16.872C186.583 15.592 186.071 14.536 185.879 13.704C185.687 12.936 185.591 12.232 185.591 11.592C185.591 9.928 186.135 8.648 187.223 7.752C188.311 6.792 189.687 6.12 191.351 5.736C193.015 5.288 194.711 5.032 196.439 4.96799C198.167 4.84 199.703 4.776 201.047 4.776C204.439 4.776 207.831 4.744 211.223 4.68C214.615 4.552 217.975 4.488 221.303 4.488C222.775 4.488 224.215 4.488 225.623 4.488C227.095 4.488 228.535 4.552 229.943 4.68C231.543 4.744 232.631 5.064 233.207 5.64C233.847 6.216 234.167 6.92 234.167 7.752C234.167 8.776 233.815 9.96 233.111 11.304C232.471 12.584 231.863 13.768 231.287 14.856C231.031 15.368 230.615 15.752 230.039 16.008C229.463 16.2 229.239 16.008 229.367 15.432C229.687 14.152 229.847 12.872 229.847 11.592C229.847 10.44 229.623 9.416 229.175 8.52C228.791 7.56 228.023 6.888 226.871 6.504C225.783 6.184 224.087 6.024 221.783 6.024C220.951 6.024 220.087 6.056 219.191 6.12C218.359 6.12 217.495 6.152 216.599 6.216C214.039 6.408 212.311 7.08 211.415 8.232C209.303 11.176 207.255 14.376 205.271 17.832C203.351 21.224 201.495 24.456 199.703 27.528C199.639 27.656 199.607 27.816 199.607 28.008C199.607 28.392 199.895 28.584 200.471 28.584C202.711 28.584 205.111 28.616 207.671 28.68C210.295 28.744 212.599 28.744 214.583 28.68C215.031 28.616 215.703 28.552 216.599 28.488C217.559 28.424 218.519 28.296 219.479 28.104C220.503 27.912 221.271 27.688 221.783 27.432C222.103 27.24 222.295 27.144 222.359 27.144C222.743 27.144 222.743 27.528 222.359 28.296C222.039 29 221.463 29.736 220.631 30.504C219.863 31.208 218.967 31.56 217.943 31.56C214.807 31.56 212.151 31.496 209.975 31.368C207.863 31.24 205.495 31.176 202.871 31.176C202.231 31.176 201.559 31.176 200.855 31.176C200.151 31.176 199.383 31.208 198.551 31.272C197.911 31.336 197.463 31.592 197.207 32.04C196.567 33.192 195.991 34.248 195.479 35.208C195.031 36.168 194.455 37.288 193.751 38.568C193.239 39.528 192.599 40.776 191.831 42.312C191.127 43.784 190.487 45.32 189.911 46.92C189.335 48.456 189.047 49.8 189.047 50.952C189.047 52.936 189.975 54.312 191.831 55.08C193.687 55.784 195.959 56.168 198.647 56.232C202.359 56.232 206.007 55.88 209.591 55.176C213.239 54.408 216.631 53.16 219.767 51.432C222.967 49.64 225.751 47.24 228.119 44.232C228.247 44.104 228.343 44.04 228.407 44.04C228.599 44.04 228.727 44.232 228.791 44.616C228.855 44.936 228.823 45.192 228.695 45.384C226.711 47.816 224.791 50.184 222.935 52.488C221.079 54.728 219.223 56.136 217.367 56.712C216.023 57.096 213.847 57.416 210.839 57.672C207.831 57.992 204.503 58.152 200.855 58.152ZM225.002 57.672C224.938 57.736 224.874 57.768 224.81 57.768C224.618 57.768 224.522 57.48 224.522 56.904C224.522 56.52 224.618 56.136 224.81 55.752C225.066 55.304 225.514 55.048 226.154 54.984C227.946 54.856 229.642 54.248 231.242 53.16C232.842 52.072 234.25 50.792 235.466 49.32C236.682 47.784 237.546 46.344 238.058 45L246.89 22.92C248.106 19.912 249.482 17 251.018 14.184C252.618 11.368 254.634 9.064 257.066 7.272C259.562 5.48 262.698 4.584 266.474 4.584C267.946 4.584 269.418 4.776 270.89 5.16C272.426 5.48 273.706 6.024 274.73 6.792C275.754 7.56 276.266 8.648 276.266 10.056C276.266 10.248 276.266 10.44 276.266 10.632C276.266 10.824 276.234 11.016 276.17 11.208C275.978 12.232 275.402 13.256 274.442 14.28C273.546 15.304 272.842 16.584 272.33 18.12C272.266 18.568 271.978 18.792 271.466 18.792C271.018 18.792 270.922 18.504 271.178 17.928C271.69 17.16 272.074 16.264 272.33 15.24C272.65 14.152 272.81 13.064 272.81 11.976C272.81 10.312 272.426 8.84 271.658 7.56C270.89 6.28 269.578 5.64 267.722 5.64C266.058 5.64 264.362 6.12 262.634 7.08C260.906 8.04 259.402 9.704 258.122 12.072L240.362 44.808C238.698 47.88 237.162 50.088 235.754 51.432C234.41 52.712 233.29 53.512 232.394 53.832H255.53C258.602 53.832 261.45 53.736 264.074 53.544C266.698 53.352 268.298 52.872 268.874 52.104C269.514 51.208 269.834 50.248 269.834 49.224C269.834 47.624 268.97 46.44 267.242 45.672C267.05 45.544 266.954 45.416 266.954 45.288C266.954 45.16 267.018 45.032 267.146 44.904C267.338 44.776 267.562 44.776 267.818 44.904C268.394 45.16 269.066 45.736 269.834 46.632C270.666 47.464 271.434 48.392 272.138 49.416C272.842 50.376 273.29 51.144 273.482 51.72C273.674 52.296 273.77 52.872 273.77 53.448C273.77 56.072 271.498 57.384 266.954 57.384C263.37 57.384 259.53 57.256 255.434 57C251.338 56.744 247.274 56.456 243.242 56.136C239.274 55.816 235.53 55.592 232.01 55.464C230.666 55.336 229.322 55.528 227.978 56.04C226.698 56.488 225.706 57.032 225.002 57.672Z" fill="#FFFBFB"/>
</svg>
