<svg width="30" height="30" viewBox="0 0 30 30" fill="none" xmlns="http://www.w3.org/2000/svg">
<path d="M15.2138 17.8313V13.7325H29.025C29.16 14.4462 29.23 15.2913 29.23 16.2062C29.23 19.2812 28.39 23.0838 25.68 25.7925C23.045 28.5363 19.6788 30 15.2188 30C6.95125 30 0 23.2663 0 15C0 6.73375 6.95125 0 15.2188 0C19.7925 0 23.05 1.795 25.4975 4.13375L22.605 7.025C20.85 5.37875 18.4713 4.09875 15.2138 4.09875C9.1775 4.09875 4.45625 8.96375 4.45625 15C4.45625 21.0362 9.1775 25.9013 15.2138 25.9013C19.1287 25.9013 21.3587 24.3287 22.7875 22.9C23.9462 21.7412 24.7087 20.0863 25.0088 17.8263L15.2138 17.8313Z" fill="black"/>
</svg>
